HIERARCHY
ROOT Hips
{
	OFFSET 0.000000 0.000000 0.000000
	CHANNELS 6 Xposition Yposition Zposition Zrotation Yrotation Xrotation 
	JOINT LowerBack
	{
		OFFSET 0.000000 0.000000 0.000000
		CHANNELS 3 Zrotation Yrotation Xrotation
		JOINT Spine
		{
			OFFSET 0.028270 2.035590 -0.193380
			CHANNELS 3 Zrotation Yrotation Xrotation
			JOINT Spine1
			{
				OFFSET 0.056720 2.048850 -0.042750
				CHANNELS 3 Zrotation Yrotation Xrotation
				JOINT Neck
				{
					OFFSET 0.000000 0.000000 0.000000
					CHANNELS 3 Zrotation Yrotation Xrotation
					JOINT Neck1
					{
						OFFSET -0.054170 1.746240 0.172020
						CHANNELS 3 Zrotation Yrotation Xrotation
						JOINT Head
						{
							OFFSET 0.104070 1.761360 -0.123970
							CHANNELS 3 Zrotation Yrotation Xrotation
							End Site
							{
								OFFSET 0.000000 0.000000 0.000000
							}
						}
					}
				}
				JOINT LeftShoulder
				{
					OFFSET 0.000000 0.000000 0.000000
					CHANNELS 3 Zrotation Yrotation Xrotation
					JOINT LeftArm
					{
						OFFSET 3.362410 1.200890 -0.311210
						CHANNELS 3 Zrotation Yrotation Xrotation
						JOINT LeftForeArm
						{
							OFFSET 4.983000 -0.000000 -0.000000
							CHANNELS 3 Zrotation Yrotation Xrotation
							JOINT LeftHand
							{
								OFFSET 3.483560 -0.000000 -0.000000
								CHANNELS 3 Zrotation Yrotation Xrotation
								JOINT LeftFingerBase
								{
									OFFSET 0.000000 0.000000 0.000000
									CHANNELS 3 Zrotation Yrotation Xrotation
									JOINT LeftHandIndex1
									{
										OFFSET 0.715260 -0.000000 -0.000000
										CHANNELS 3 Zrotation Yrotation Xrotation
										End Site
										{
											OFFSET 0.000000 0.000000 0.000000
										}
									}
								}
								JOINT LThumb
								{
									OFFSET 0.000000 0.000000 0.000000
									CHANNELS 3 Zrotation Yrotation Xrotation
									End Site
									{
										OFFSET 0.000000 0.000000 0.000000
									}
								}
							}
						}
					}
				}
				JOINT RightShoulder
				{
					OFFSET 0.000000 0.000000 0.000000
					CHANNELS 3 Zrotation Yrotation Xrotation
					JOINT RightArm
					{
						OFFSET -3.136600 1.374050 -0.404650
						CHANNELS 3 Zrotation Yrotation Xrotation
						JOINT RightForeArm
						{
							OFFSET -5.241900 -0.000000 -0.000000
							CHANNELS 3 Zrotation Yrotation Xrotation
							JOINT RightHand
							{
								OFFSET -3.444170 -0.000000 -0.000000
								CHANNELS 3 Zrotation Yrotation Xrotation
								JOINT RightFingerBase
								{
									OFFSET 0.000000 0.000000 0.000000
									CHANNELS 3 Zrotation Yrotation Xrotation
									JOINT RightHandIndex1
									{
										OFFSET -0.622530 -0.000000 -0.000000
										CHANNELS 3 Zrotation Yrotation Xrotation
										End Site
										{
											OFFSET 0.000000 0.000000 0.000000
										}
									}
								}
								JOINT RThumb
								{
									OFFSET 0.000000 0.000000 0.000000
									CHANNELS 3 Zrotation Yrotation Xrotation
									End Site
									{
										OFFSET 0.000000 0.000000 0.000000
									}
								}
							}
						}
					}
				}
			}
		}
	}
}
}
MOTION
Frames: 12
Frame Time: 0.008333
2.840688 17.055519 0.375474 24.308257 -88.415395 -16.023466 -2.053369 -4.214045 -5.541546 -0.600401 -4.191521 -3.147354 -4.054877 -4.276929 2.934570 11.127379 -24.708212 -8.792110 -0.908032 -0.055917 -0.181301 0.000000 0.000000 0.000000 15.165507 10.336767 -0.445557 -25.687362 4.187166 -14.541276 -179.877547 -75.324497 -179.995605 -1.909746 -5.519366 0.107821 0.133479 0.554687 -0.000000 0.000000 0.000000 0.000000 0.000000 0.000000 0.000000 7.167521 -20.957974 -1.902599 29.111490 12.554607 -5.220405 179.784771 70.760179 179.943158 -9.054340 9.615178 -0.822900 0.172217 -0.561254 -0.000000 0.000000 0.000000 0.000000 0.000000 0.000000 0.000000 
2.833126 17.045593 0.379488 19.681554 -87.527109 -11.538981 -2.292490 -4.234421 -5.548294 -0.649053 -4.192889 -3.145349 -4.050185 -4.278492 2.926792 11.119234 -24.822327 -8.833420 -0.906363 -0.054989 -0.192281 0.000000 0.000000 0.000000 15.116869 10.382332 -0.477494 -25.720631 3.967673 -14.350430 -179.881640 -75.122533 -179.995492 -1.943702 -5.496431 0.109300 0.135919 0.554931 -0.000000 0.000000 0.000000 0.000000 0.000000 0.000000 0.000000 7.199051 -21.070154 -1.896738 29.175883 12.490005 -5.035497 179.776987 70.826808 179.943542 -9.048626 9.729818 -0.831779 0.172710 -0.562349 -0.000000 0.000000 0.000000 0.000000 0.000000 0.000000 0.000000 
2.823734 17.036654 0.383917 16.313153 -86.534927 -8.294471 -2.499977 -4.266692 -5.577872 -0.689483 -4.208833 -3.147312 -4.046093 -4.294635 2.920233 11.106669 -24.946299 -8.881356 -0.904631 -0.053966 -0.204886 0.000000 0.000000 0.000000 15.063054 10.420496 -0.511462 -25.776236 3.752086 -14.143264 -179.885270 -74.887446 -179.995349 -1.986114 -5.487872 0.111578 0.138699 0.555600 -0.000000 0.000000 0.000000 0.000000 0.000000 0.000000 0.000000 7.228396 -21.195431 -1.889773 29.260133 12.415834 -4.845713 179.766700 70.911505 179.944292 -8.989370 9.836242 -0.834959 0.172083 -0.562927 -0.000000 0.000000 0.000000 0.000000 0.000000 0.000000 0.000000 
2.812368 17.028845 0.388797 13.787634 -85.452401 -5.871099 -2.685904 -4.304764 -5.633872 -0.725057 -4.232429 -3.154333 -4.044069 -4.318360 2.914433 11.090692 -25.078873 -8.936220 -0.903285 -0.052882 -0.219151 0.000000 0.000000 0.000000 15.008015 10.449338 -0.547643 -25.851852 3.548954 -13.917295 -179.888456 -74.615700 -179.995187 -2.035815 -5.494214 0.114456 0.141788 0.556671 -0.000000 0.000000 0.000000 0.000000 0.000000 0.000000 0.000000 7.258157 -21.327897 -1.880123 29.363325 12.316616 -4.662802 179.753958 71.012658 179.945399 -8.880607 9.916724 -0.831244 0.170512 -0.562610 -0.000000 0.000000 0.000000 0.000000 0.000000 0.000000 0.000000 
2.799106 17.022370 0.394086 11.867812 -84.284890 -4.033284 -2.862076 -4.346343 -5.712018 -0.759151 -4.260436 -3.165526 -4.045951 -4.346346 2.909411 11.074960 -25.213332 -8.999469 -0.903083 -0.051767 -0.235497 0.000000 0.000000 0.000000 14.956272 10.479100 -0.585615 -25.944432 3.347655 -13.669281 -179.891131 -74.311985 -179.995006 -2.092152 -5.513066 0.118033 0.145141 0.558135 -0.000000 0.000000 0.000000 0.000000 0.000000 0.000000 0.000000 7.295278 -21.458761 -1.867811 29.484342 12.174264 -4.500290 179.739412 71.127175 179.946784 -8.736114 9.958660 -0.820929 0.168317 -0.561112 0.000000 0.000000 0.000000 0.000000 0.000000 0.000000 0.000000 
2.783833 17.017365 0.399832 10.388027 -83.034606 -2.612957 -3.036271 -4.389299 -5.813284 -0.793913 -4.290135 -3.181407 -4.052814 -4.375862 2.904027 11.062092 -25.348060 -9.071763 -0.904384 -0.050640 -0.254070 0.000000 0.000000 0.000000 14.911511 10.506789 -0.624855 -26.050495 3.154134 -13.396403 -179.893199 -73.975111 -179.994809 -2.153882 -5.542017 0.122108 0.148697 0.559901 -0.000000 0.000000 0.000000 0.000000 0.000000 0.000000 0.000000 7.343420 -21.583803 -1.852452 29.617196 11.973164 -4.367274 179.723641 71.245318 179.948324 -8.578023 9.954946 -0.805513 0.166059 -0.558344 0.000000 0.000000 0.000000 0.000000 0.000000 0.000000 0.000000 
2.766471 17.013958 0.406099 9.239691 -81.702380 -1.500084 -3.215127 -4.432039 -5.936170 -0.831139 -4.319418 -3.201862 -4.065558 -4.404781 2.897390 11.054523 -25.480908 -9.154170 -0.907406 -0.049503 -0.275165 0.000000 0.000000 0.000000 14.876687 10.534451 -0.664801 -26.166558 2.965702 -13.094866 -179.894549 -73.605840 -179.994596 -2.219675 -5.577542 0.126482 0.152391 0.561897 -0.000000 0.000000 0.000000 0.000000 0.000000 0.000000 0.000000 7.406057 -21.699245 -1.834083 29.755136 11.701275 -4.269744 179.707402 71.360199 179.949868 -8.432711 9.906730 -0.787893 0.164343 -0.554384 0.000000 0.000000 0.000000 0.000000 0.000000 0.000000 0.000000 
2.747329 17.012319 0.412920 8.348221 -80.290095 -0.624929 -3.404830 -4.473666 -6.075296 -0.872440 -4.346875 -3.225822 -4.084868 -4.431654 2.888903 11.055578 -25.608827 -9.248208 -0.912009 -0.048312 -0.299251 0.000000 0.000000 0.000000 14.853366 10.571444 -0.704367 -26.287136 2.772117 -12.761508 -179.894974 -73.210981 -179.994355 -2.289387 -5.614731 0.131255 0.156162 0.564029 -0.000000 0.000000 0.000000 0.000000 0.000000 0.000000 0.000000 7.486795 -21.801512 -1.813591 29.891793 11.356335 -4.209840 179.691621 71.464040 179.951252 -8.326221 9.824609 -0.771465 0.163704 -0.549546 0.000000 0.000000 0.000000 0.000000 0.000000 0.000000 0.000000 
2.726057 17.012515 0.420526 7.643211 -78.796962 0.090890 -3.605176 -4.512025 -6.235903 -0.917805 -4.370355 -3.254998 -4.110434 -4.454384 2.876406 11.064937 -25.737055 -9.353299 -0.917925 -0.047066 -0.326110 0.000000 0.000000 0.000000 14.840717 10.599674 -0.742672 -26.406179 2.596212 -12.395098 -179.894378 -72.783111 -179.994098 -2.360897 -5.652131 0.136229 0.159935 0.566152 -0.000000 0.000000 0.000000 0.000000 0.000000 0.000000 0.000000 7.584084 -21.893669 -1.789348 30.014655 10.939292 -4.182088 179.676317 71.550850 179.952363 -8.280673 9.720461 -0.759227 0.164704 -0.544171 -0.000000 0.000000 0.000000 0.000000 0.000000 0.000000 0.000000 
2.703269 17.014688 0.428845 7.097167 -77.230130 0.664178 -3.822480 -4.546415 -6.407332 -0.968628 -4.388584 -3.286509 -4.141861 -4.471664 2.861836 11.084374 -25.861307 -9.471875 -0.923690 -0.045585 -0.356593 0.000000 0.000000 0.000000 14.837555 10.651858 -0.778792 -26.517779 2.396286 -11.991485 -179.892537 -72.342238 -179.993795 -2.434855 -5.683052 0.141099 0.163656 0.568253 -0.000000 0.000000 0.000000 0.000000 0.000000 0.000000 0.000000 7.696788 -21.974130 -1.763554 30.124988 10.470534 -4.180881 179.662529 71.625700 179.953117 -8.305053 9.619401 -0.753681 0.167340 -0.538848 -0.000000 0.000000 0.000000 0.000000 0.000000 0.000000 0.000000 
2.678809 17.018841 0.438109 6.667967 -75.590837 1.142548 -4.055335 -4.574623 -6.594101 -1.024502 -4.399399 -3.321798 -4.178022 -4.481420 2.843575 11.111153 -25.987747 -9.602320 -0.928458 -0.043832 -0.390245 0.000000 0.000000 0.000000 14.839971 10.710167 -0.811693 -26.613010 2.193977 -11.551686 -179.889492 -71.886490 -179.993466 -2.508742 -5.708203 0.145972 0.167248 0.570226 -0.000000 0.000000 0.000000 0.000000 0.000000 0.000000 0.000000 7.819747 -22.048043 -1.733796 30.213383 9.965697 -4.194502 179.649867 71.697338 179.953526 -8.400124 9.536216 -0.755822 0.171645 -0.533896 -0.000000 0.000000 0.000000 0.000000 0.000000 0.000000 0.000000 
2.652962 17.025017 0.448407 6.331805 -73.884902 1.547958 -4.304936 -4.594860 -6.795763 -1.085581 -4.400827 -3.360755 -4.217641 -4.481753 2.821750 11.141963 -26.117591 -9.743485 -0.930807 -0.041704 -0.426845 0.000000 0.000000 0.000000 14.844151 10.776004 -0.840619 -26.683355 1.984943 -11.076981 -179.885390 -71.422481 -179.993117 -2.581200 -5.726997 0.150645 0.170667 0.572055 -0.000000 0.000000 0.000000 0.000000 0.000000 0.000000 0.000000 7.945140 -22.117471 -1.698976 30.279413 9.449147 -4.212452 179.638222 71.780849 179.953665 -8.551793 9.485791 -0.765455 0.177213 -0.529626 -0.000000 0.000000 0.000000 0.000000 0.000000 0.000000 0.000000 
